<svg width="786" height="297" viewBox="0 0 786 297" fill="none" xmlns="http://www.w3.org/2000/svg">
<path d="M251.579 118.245C251.579 118.245 224.185 108.252 188.964 108.252C138.648 108.252 120.199 130.458 120.199 181.531V297H0V8.3271H101.75C116.285 8.3271 119.081 12.2131 119.081 16.6542C119.081 34.9738 73.7964 67.7271 73.7964 140.45H87.214C87.214 88.8224 124.112 2.7757 205.176 2.7757C221.389 2.7757 242.634 3.886 251.579 5.5514V118.245Z" fill="#DC2626"/>
<path d="M468.452 155.994C468.452 114.914 455.034 96.0393 430.435 96.0393C401.923 96.0393 385.71 116.579 385.71 167.652V297H265.512V8.3271H370.616C384.592 8.3271 385.71 12.2131 385.71 16.6542C385.71 34.9738 340.985 64.3963 340.985 129.348H354.403C354.403 84.9364 394.655 0 479.633 0C540.571 0 564.611 35.529 564.611 51.0729C564.611 69.3925 541.13 75.4991 541.13 129.348H554.548C554.548 79.3851 592.005 0 676.983 0C764.197 0 786 67.7271 786 142.671V297H665.801V155.994C665.801 114.914 649.588 96.0393 625.549 96.0393C604.304 96.0393 588.65 111.028 588.65 162.101V297H468.452V155.994Z" fill="#DC2626"/>
</svg>