<?xml version="1.0" encoding="UTF-8"?>
<svg id="Layer_2" data-name="Layer 2" xmlns="http://www.w3.org/2000/svg" viewBox="0 0 211.1 206.63">
  <g id="Layer_1-2" data-name="Layer 1">
    <g>
      <path d="M62.77,173.6l21.44-.27c2.88-2.33,6.41-4.81,10.22-4.8l25.74.05c6.95.01,12.66,5.64,12.61,12.72l-.1,13.52c-.05,7.35-6.82,11.83-13.46,11.82l-25.71-.06c-3.16,0-6.86-2.73-9.19-4.71l-23.69-.44c-29.25-.54-53.28-24.19-53.47-53.47l-.2-30.7c-4.47-13.81-4.86-28.01.05-41.66V26.53C-1.66,23.64-.88,8.46,1.9,4,3.05,2.15,7.01.01,9.56.01h22.92c2.2-.01,5.91,1.86,7.19,3.44,3.18,3.95,4.32,20.55-4.78,22.9l.07,18.66c7.72-2.99,14.61-5.37,22.47-5.35l99.59.19c32.93.06,56.81,29.43,53.82,61.55-1.44,15.52-6.83,29.85-18.71,40.02-15.14,12.96-36.93,13.75-54.26,3.73-9.53,16.73-32,20.92-48.85,12.35-5.31-2.7-9.08-6.94-12.14-12.25-12.42,7.3-27.14,8.69-41.77,3.67,1.58,14.22,13.14,24.86,27.65,24.68ZM35.44,20.59c.19-6.14.15-9.35-.34-14.54H6.93c-.77,5.39-.77,9.83.22,14.65l28.29-.11ZM29,48.3l-.11-21.66h-15.85s.09,36.56.09,36.56c5.38-6.04,9.69-10.16,15.87-14.89ZM119.08,119.08c6.27,6.29,11.14,12.89,18.02,18.33,15.35,12.14,38.76,11.77,52.89-2.01,11.14-10.86,15.46-25.54,15.12-41.15-.55-25.32-20.87-48.36-46.98-48.36H56.34c-25.59,0-45.97,22.54-46.96,47.28-.48,12.05,2.1,22.65,7.62,32.65,8.14,14.73,23.97,22.05,40.55,19.86,21.41-2.84,26.8-16.84,41.06-28.87,6.21-5.24,14.67-3.53,20.46,2.27ZM132.81,141.9c-11.06-8.9-21.11-28.3-30.59-20.7-4.19,3.36-7.2,7.36-10.85,11.15l-9.37,9.74c4,7.6,11.02,11.77,19.16,13.25,12.23,2.23,25.36-1.9,31.66-13.45ZM81.87,179.52c-8.94-.06-16.47.36-24.47-.58-16.72-1.97-28.06-16.63-28.4-32.74-6.79-4.29-11.08-8.77-15.84-15.22l-.13,18.32c1.69,25.85,22.75,46.1,48.74,46.26l20.13.12-.03-16.16ZM120.74,200.81c3.45-.47,6.34-3.48,6.33-6.7l-.02-13.03c0-3.71-3.34-6.63-6.98-6.63l-25.61.02c-3.86,0-6.85,2.98-6.85,6.75v12.72c0,3.69,2.92,6.83,6.68,6.84l26.45.04Z"/>
      <path d="M138.11,124.02c-4.52-5.15-8.33-9.54-12.74-13.67-11.1-10.39-26.41-9.51-37.31,1.07-6.09,5.91-11.06,13.14-18.17,18.24-11.45,8.23-27.72,7.61-37.91-1.73-7.18-6.58-9.71-15.17-11.46-24.74-4.2-22.99,12.53-46.65,36.91-46.63l100.65.1c22.67.02,38.36,21.76,36.34,43.19-1.03,10.85-4.27,21.14-12.44,28.39-12.9,11.45-32.64,8.57-43.86-4.22ZM168.76,128.72c16.79-3.84,23.6-28.24,18.08-44.13-4.75-13.65-17.09-22.44-31.81-22.44H59.45c-17.94,0-32.43,13.48-33.4,31.21-.85,15.59,5.75,32.7,20.45,35.55,20.95,4.06,27.12-13.44,40.75-24.49,11.62-9.42,27.76-9.88,39.47-.52,14.23,11.38,20.68,29.7,42.04,24.82Z"/>
    </g>
  </g>
</svg>